# xmcd CD database file
#
# Track frame offsets:
#	150
#	14046
#	27636
#	44024
#	57647
#	71842
#	88642
#	104605
#	119455
#	134646
#	148316
#	162937
#	178820
#	195207
#
# Disc length: 2791 seconds
#
# Revision: 0
# Processed by: cddbd v1.4PL0 Copyright (c) Steve Scherf et al.
# Submitted via: Feurio! 1.64 - http://www.feurio.com
#
DISCID=e20ae50e
DTITLE=Die Flippers - Träume von Liebe
DYEAR=1900
DGENRE=blues
TTITLE0=Weiße Rose im Sommerwind
TTITLE1=Wann kommst du wieder
TTITLE2=Solang es deine Liebe gibt
TTITLE3=Am Ende bleiben doch nur Träume
TTITLE4=Hab' ich dich verloren
TTITLE5=Wenn in Petersburg die weißen Rosen blühen
TTITLE6=Ich hab' nen Bungalow in Santa Nirgendwo
TTITLE7=Die schönsten Träume
TTITLE8=Wenn weiße Wolken heimwärts ziehen
TTITLE9=Adios my love
TTITLE10=Wir stehen am Anfang
TTITLE11=Wünsche fliegen übers Meer
TTITLE12=Ich werde dich im Leben nicht vergessen
TTITLE13=Sag' bitte beim Abschied auf Wiedersehen
EXTD=
EXTT0=
EXTT1=
EXTT2=
EXTT3=
EXTT4=
EXTT5=
EXTT6=
EXTT7=
EXTT8=
EXTT9=
EXTT10=
EXTT11=
EXTT12=
EXTT13=
PLAYORDER=
